PathFileType	4	(X/Y/Z)	4_coords_data.trc
DataRate	CameraRate	NumFrames	NumMarkers	Units	OrigDataRate	OrigDataStartFrame	OrigNumFrames
30.0	30.0	5	21	m	30.0	10	57
Frame#	Time	THUMB_TIP	THUMB_IP	THUMB_MCP	THUMB_CMC	INDEX_TIP	INDEX_DIP	INDEX_PIP	INDEX_MCP	MIDDLE_TIP	MIDDLE_DIP	MIDDLE_PIP	MIDDLE_MCP	RING_TIP	RING_DIP	RING_PIP	RING_MCP	PINKY_TIP	PINKY_DIP	PINKY_PIP	PINKY_MCP	WRIST
X1	Y1	Z1	X2	Y2	Z2	X3	Y3	Z3	X4	Y4	Z4	X5	Y5	Z5	X6	Y6	Z6	X7	Y7	Z7	X8	Y8	Z8	X9	Y9	Z9	X10	Y10	Z10	X11	Y11	Z11	X12	Y12	Z12	X13	Y13	Z13	X14	Y14	Z14	X15	Y15	Z15	X16	Y16	Z16	X17	Y17	Z17	X18	Y18	Z18	X19	Y19	Z19	X20	Y20	Z20	X21	Y21	Z21
8	0.2999999999999987	0.532196818119324	-0.013331895408511651	-0.09867084291904195	0.515148517391316	-0.014997194922822699	-0.11398692008700634	0.4844688212131386	-0.017409635383137556	-0.11865129286800954	0.4781413444470902	-0.026906184784896925	-0.07552741795822134	0.49436840275237626	-0.00896177933607345	-0.10645271957178776	0.5108559301626723	-0.009735019733656869	-0.11390681503550981	0.5269319775598356	0.008243662471264068	-0.12100170892186321	0.49456925262700413	0.032294551713984654	-0.10729605842448509	0.49803929208599673	-0.0221478969442509	-0.09953100252513775	0.5142213927783619	-0.01467169956804737	-0.0963300511081053	0.5373847301562984	0.002315398118292955	-0.1012603516781136	0.5088834480728124	0.033784275720005974	-0.08734868092705123	0.5276897740949908	-0.008811420620664645	-0.09050007527358737	0.5163905611306805	-0.01603172062634195	-0.07845038423127512	0.5400615912565397	-0.009464911843481083	-0.082541757373633	0.523984563824285	0.02509327341962142	-0.06905169235289976	0.5044205340146461	-0.02017551923796368	-0.05889212441373846	0.5191818825707488	-0.026204484837610842	-0.0651174085521142	0.5390852434201365	-0.019522866863302846	-0.06496175783906663	0.5278789718295231	0.010825841276427828	-0.04901626185158313	0.462283081001861	-0.023011742144276925	-0.051989820119430985
9	0.33333333333333187	0.5322097486027226	-0.013509535214416002	-0.09870911705742634	0.5151320319981025	-0.015097282522418265	-0.11400063935110974	0.4844414576569215	-0.017366401777803353	-0.11866537347143084	0.4780931203999146	-0.026920985625116245	-0.07555738649017679	0.4943747529767465	-0.009052198960883606	-0.10648128341161786	0.5108634916636918	-0.009795753444489574	-0.11393571989223378	0.5270017111508899	0.008132731954985872	-0.12101647663595991	0.4947133188558507	0.03225145763856385	-0.10725483108021416	0.49801615291128165	-0.02217413169587168	-0.09959286175908405	0.5142379848212888	-0.014783147102997662	-0.09639512564874414	0.5374494544592461	0.0021433151461976996	-0.10130756933521642	0.5090575970067573	0.03366967360280371	-0.08730260329230327	0.52773996928236	-0.009054429542824427	-0.09059238305453542	0.516388363173666	-0.01617820629045641	-0.0785344875663932	0.5400897563874932	-0.009714307123578458	-0.08261394173134967	0.5241531461681547	0.02487834593420568	-0.06904583047220028	0.5043685285698366	-0.02040085042916251	-0.05892497320907594	0.5191120486339558	-0.02639760449150519	-0.06522319175360816	0.5390579038977429	-0.019844233117162324	-0.06505526192897595	0.5280272712216707	0.010540252598172817	-0.0490555237567379	0.462283081001861	-0.023011742144276925	-0.051989820119430985
10	0.3666666666666651	0.5322419839606483	-0.013633553612979465	-0.0987669532542317	0.5151527417046416	-0.015150907345223286	-0.11405274524440229	0.4844522428752369	-0.017356867191173797	-0.11868233623970353	0.47805043881070675	-0.026925089626947507	-0.07558528269611514	0.4943895887665307	-0.009049949275702573	-0.10654719598341775	0.5108996491595404	-0.009858310680250226	-0.1139474971704513	0.5270815198790249	0.008042429425781927	-0.12099876632388636	0.49484972242000735	0.03221938455281281	-0.10720666106956034	0.4979802231701471	-0.022154011426943954	-0.09963560484246224	0.5142478981235558	-0.014864683171544768	-0.09643741079030094	0.5375099317060367	0.002001918636644784	-0.10131645650145286	0.5092069073413115	0.03357998501092185	-0.0872483202755156	0.5277455426941549	-0.009244985186556476	-0.09067657981026078	0.5163733456509286	-0.016286836187040743	-0.07858999762599486	0.5401019420024686	-0.009910922774937214	-0.0826497294332743	0.5242862008127195	0.02471412695791264	-0.06902295081114382	0.5043197293772835	-0.02058100926910289	-0.05894420371826221	0.5190550541841965	-0.02653586060335522	-0.06530108569150422	0.5390381801934481	-0.02009769667308503	-0.06510941121396319	0.5281417003783511	0.010316767946657368	-0.049074745001857975	0.4622830810018608	-0.023011742144276925	-0.051989820119430985
11	0.39999999999999825	0.5323181330756607	-0.013700786616164584	-0.09881032295871744	0.5151802424398598	-0.0152142928169674	-0.1140419349395768	0.4844745515445277	-0.017327584172841415	-0.11868031248840867	0.4780314847697007	-0.026930277075793985	-0.07559707700699769	0.49437542730257067	-0.008886443694013813	-0.10663370996111939	0.5109267157624545	-0.009875963939425247	-0.11391901709271202	0.5271665566264572	0.007977794100720081	-0.12095611347942035	0.4949769148587786	0.03220213755216006	-0.1071487154184093	0.4979765559988648	-0.022158605235987783	-0.09958621254802853	0.5142838431489585	-0.014930965835970311	-0.09645035309523055	0.5375743691979135	0.0019061403601540183	-0.10129522680910355	0.5093372870626591	0.03351886662106718	-0.08717252693126598	0.5278155531170897	-0.009337606411839339	-0.09063450304425091	0.5163692540377445	-0.016355222704760863	-0.07860390459897365	0.5401203238551869	-0.010049986180508452	-0.08264254965644241	0.5243941743555394	0.024594995526722174	-0.06896284577001276	0.5042614355937332	-0.020740622286445354	-0.058956685961306966	0.5190196869941357	-0.02662342632432424	-0.06532744982872747	0.53903370067393	-0.02028302510982216	-0.0651025323679716	0.5282250784307522	0.010148492008810184	-0.049040779597409156	0.4622830810018609	-0.023011742144276925	-0.051989820119430985
12	0.43333333333333146	0.5323986705419416	-0.013693743089781996	-0.09885270691869326	0.5152235358533822	-0.015189330077291285	-0.11404408499945466	0.4845137613456577	-0.017272613977590057	-0.11866898260648008	0.47802888105634933	-0.026916170670440942	-0.07560115073691516	0.4944164199900227	-0.008665130717429137	-0.10668057551938026	0.5109880551694876	-0.009844417902422853	-0.11389099778260663	0.5272490975003137	0.007996908460719765	-0.12091064228349946	0.49508399129317937	0.032228435121441024	-0.10705874160617279	0.4979685468993478	-0.022065243051036076	-0.09957448144407872	0.5143313004695225	-0.014957899043340661	-0.09645262994889028	0.5376384964727344	0.0018671560196296122	-0.10125905134072494	0.5094563147374143	0.03349253191157309	-0.08705524363537084	0.527871043853857	-0.009420205096859258	-0.09061731350484467	0.516380930604909	-0.01639177314829643	-0.0786017179544555	0.5401457774644967	-0.01012718494467979	-0.08262253470972475	0.5244813859814556	0.024515428619024893	-0.06886619075713826	0.504231712063302	-0.020783985477950906	-0.05896105904270863	0.5189792331052346	-0.026672754550205457	-0.06535113118090949	0.5390222546133542	-0.020425837986503548	-0.06509551179353264	0.5282926514060823	0.010008928659358873	-0.048987003320480144	0.4622830810018608	-0.023011742144276925	-0.051989820119430985
